# xmcd CD database file
#
# Track frame offsets:
#	150
#	14619
#	31529
#	50851
#	65680
#	84559
#	101137
#	119372
#	136615
#	155451
#	171253
#
# Disc length: 2605 seconds
#
# Revision: 0
# Processed by: cddbd v1.5.1PL0 Copyright (c) Steve Scherf et al.
# Submitted via: CDex 1.51
#
DISCID=900a2b0b
DTITLE=Quiet Loner - Secret Ruler Of The World
DYEAR=2004
DGENRE=Country
TTITLE0=Henri
TTITLE1=Real Romantic Soul
TTITLE2=Dusk Settles
TTITLE3=Steal Away
TTITLE4=God Knows I'm Learning
TTITLE5=Friction Of Her Smile
TTITLE6=Postcards To Broken Hearts
TTITLE7=Bitter
TTITLE8=Won't Stop Me Missing
TTITLE9=Truth Or Consequence
TTITLE10=Complex Messiah
EXTD=YEAR: 2004
EXTT0=
EXTT1=
EXTT2=
EXTT3=
EXTT4=
EXTT5=
EXTT6=
EXTT7=
EXTT8=
EXTT9=
EXTT10=
PLAYORDER=
